<?xml version="1.0" encoding="UTF-8" standalone="no"?>
<svg
   version="1.2"
   height="49.9533mm"
   viewBox="0 0 1653 590"
   width="139.954mm"
   id="svg624"
   sodipodi:docname="GA.svg"
   inkscape:version="1.3.2 (091e20e, 2023-11-25, custom)"
   xmlns:inkscape="http://www.inkscape.org/namespaces/inkscape"
   xmlns:sodipodi="http://sodipodi.sourceforge.net/DTD/sodipodi-0.dtd"
   xmlns="http://www.w3.org/2000/svg"
   xmlns:svg="http://www.w3.org/2000/svg"
   xmlns:rdf="http://www.w3.org/1999/02/22-rdf-syntax-ns#"
   xmlns:cc="http://creativecommons.org/ns#"
   xmlns:dc="http://purl.org/dc/elements/1.1/">
  <sodipodi:namedview
     id="namedview624"
     pagecolor="#ffffff"
     bordercolor="#111111"
     borderopacity="1"
     inkscape:showpageshadow="0"
     inkscape:pageopacity="0"
     inkscape:pagecheckerboard="1"
     inkscape:deskcolor="#d1d1d1"
     inkscape:document-units="mm"
     inkscape:zoom="2.170942"
     inkscape:cx="182.86993"
     inkscape:cy="62.645618"
     inkscape:window-width="1842"
     inkscape:window-height="1051"
     inkscape:window-x="69"
     inkscape:window-y="-9"
     inkscape:window-maximized="1"
     inkscape:current-layer="svg624" />
  <defs
     id="defs1" />
  <g
     stroke-linejoin="bevel"
     font-style="normal"
     stroke-width="1"
     font-family="'MS Shell Dlg 2'"
     font-size="50px"
     stroke-linecap="square"
     font-weight="400"
     fill="none"
     stroke="#000000"
     stroke-opacity="1"
     id="g1"
     style="fill-rule:evenodd" />
  <g
     stroke-linejoin="bevel"
     font-style="normal"
     stroke-width="1"
     font-family="'MS Shell Dlg 2'"
     font-size="50px"
     stroke-linecap="square"
     font-weight="400"
     fill="none"
     stroke="#000000"
     stroke-opacity="1"
     id="g2"
     style="fill-rule:evenodd" />
  <g
     stroke-linejoin="bevel"
     font-style="normal"
     stroke-width="1"
     font-family="'MS Shell Dlg 2'"
     font-size="50px"
     stroke-linecap="square"
     font-weight="400"
     transform="scale(11.8)"
     fill="none"
     stroke="#000000"
     stroke-opacity="1"
     id="g3"
     style="fill-rule:evenodd" />
  <g
     stroke-linejoin="bevel"
     font-style="normal"
     stroke-width="1"
     font-family="'MS Shell Dlg 2'"
     font-size="50px"
     stroke-linecap="square"
     font-weight="400"
     transform="scale(0.999067)"
     fill="none"
     stroke="#000000"
     stroke-opacity="1"
     id="g4"
     style="fill-rule:evenodd" />
  <g
     stroke-linejoin="bevel"
     font-style="normal"
     stroke-width="1"
     font-family="'MS Shell Dlg 2'"
     font-size="50px"
     stroke-linecap="square"
     font-weight="400"
     transform="scale(0.999067)"
     fill="none"
     stroke="#000000"
     stroke-opacity="1"
     id="g6"
     style="fill-rule:evenodd" />
  <g
     stroke-linejoin="bevel"
     font-style="normal"
     stroke-width="1"
     font-family="'MS Shell Dlg 2'"
     font-size="50px"
     stroke-linecap="square"
     font-weight="400"
     transform="scale(11.8)"
     fill="none"
     stroke="#000000"
     stroke-opacity="1"
     id="g7"
     style="fill-rule:evenodd" />
  <g
     stroke-linejoin="bevel"
     font-style="normal"
     stroke-width="1"
     font-family="'MS Shell Dlg 2'"
     font-size="50px"
     stroke-linecap="square"
     font-weight="400"
     transform="scale(11.8)"
     fill="none"
     stroke="#000000"
     stroke-opacity="1"
     id="g8"
     style="fill-rule:evenodd" />
  <g
     stroke-linejoin="bevel"
     font-style="normal"
     stroke-width="1"
     font-family="'MS Shell Dlg 2'"
     font-size="50px"
     stroke-linecap="square"
     font-weight="400"
     transform="scale(11.8)"
     fill="none"
     stroke="#000000"
     stroke-opacity="1"
     id="g9"
     style="fill-rule:evenodd" />
  <g
     stroke-linejoin="bevel"
     font-style="normal"
     stroke-width="1"
     font-family="'MS Shell Dlg 2'"
     font-size="50px"
     stroke-linecap="square"
     font-weight="400"
     transform="scale(11.8)"
     fill="none"
     stroke="#000000"
     stroke-opacity="1"
     id="g10"
     style="fill-rule:evenodd" />
  <g
     stroke-linejoin="bevel"
     font-style="normal"
     stroke-width="1"
     font-family="'MS Shell Dlg 2'"
     font-size="50px"
     stroke-linecap="square"
     font-weight="400"
     transform="scale(11.8)"
     fill="none"
     stroke="#000000"
     stroke-opacity="1"
     id="g11"
     style="fill-rule:evenodd" />
  <g
     stroke-linejoin="bevel"
     font-style="normal"
     stroke-width="1"
     font-family="'MS Shell Dlg 2'"
     font-size="50px"
     stroke-linecap="square"
     font-weight="400"
     transform="scale(11.8)"
     fill="none"
     stroke="#000000"
     stroke-opacity="1"
     id="g13"
     style="fill-rule:evenodd" />
  <g
     stroke-linejoin="bevel"
     font-style="normal"
     stroke-width="1"
     font-family="'MS Shell Dlg 2'"
     font-size="50px"
     stroke-linecap="square"
     font-weight="400"
     transform="scale(11.8)"
     fill="none"
     stroke="#000000"
     stroke-opacity="1"
     id="g14"
     style="fill-rule:evenodd" />
  <g
     font-style="normal"
     font-family="'MS Shell Dlg 2'"
     font-size="50px"
     font-weight="400"
     fill-opacity="0"
     transform="scale(0.999067)"
     fill="#000000"
     stroke="none"
     id="g15"
     style="fill-rule:evenodd;stroke-width:1;stroke-linecap:square;stroke-linejoin:bevel" />
  <g
     stroke-linejoin="bevel"
     font-style="normal"
     stroke-width="1"
     font-family="'MS Shell Dlg 2'"
     font-size="50px"
     stroke-linecap="square"
     font-weight="400"
     transform="scale(0.999067)"
     fill="none"
     stroke="#000000"
     stroke-opacity="1"
     id="g16"
     style="fill-rule:evenodd" />
  <g
     stroke-linejoin="bevel"
     font-style="normal"
     stroke-width="1"
     font-family="'MS Shell Dlg 2'"
     font-size="50px"
     stroke-linecap="square"
     font-weight="400"
     transform="scale(0.999067)"
     fill="none"
     stroke="#000000"
     stroke-opacity="1"
     id="g578"
     style="fill-rule:evenodd" />
  <path
     id="path602"
     style="font-style:normal;font-weight:400;font-size:50px;font-family:'MS Shell Dlg 2';fill:none;fill-opacity:1;stroke:#7d8b8f;stroke-width:3.3661429;stroke-linecap:round;stroke-linejoin:round;stroke-dasharray:none;stroke-opacity:1"
     d="m 839.53598,767.70506 c -1.85549,-3.71407 3.2008,-5.22629 2.47169,-8.54502 m 0,0 c 2.61942,-1.1286 -0.15011,-4.00044 2.4707,-5.12821 m -72.89093,1.7094 c 2.00996,-2.9769 1.04693,-7.39109 3.70654,-10.25941 m 69.18439,8.55001 c -1.61555,-3.76398 0.55167,-5.8996 0,-10.25942 m -69.18439,1.70941 1.66587,-2.30581 0.80482,-1.114 m 66.7137,1.7104 1.23484,-1.7104 m 0,0 c -0.76832,-2.22538 1.56215,-3.44895 2.4707,-5.13221 m -70.41924,5.13221 v -1.7104 m 0,0 c 3.77177,-0.66159 5.67092,-7.07889 6.17723,-10.26642 m 64.24201,6.84461 c 1.86349,-2.49642 4.06731,-5.63064 7.41307,-5.1332 m 0,0 c 3.56029,-0.4236 7.25541,-6.6511 8.64793,-10.26841 m -80.30301,8.557 v -2.84462 -2.28958 m 0,0 c 2.98666,-2.51119 1.97457,-6.01219 4.94238,-8.55901 m 373.10062,5.13621 -1.2389,-1.71241 h -2.4677 m -294.03339,1.71241 v -1.71241 m 294.03339,0 c -2.0805,-3.66599 -4.4345,-8.5802 0,-11.9868 m -294.03339,11.9868 c 0.29042,-4.56934 4.20305,-7.58788 4.94138,-11.9868 m -80.30201,8.563 c 3.60402,-1.8 2.70386,-8.15565 6.17723,-8.563 m 363.21679,0 c -1.8196,-3.00097 2.1004,-4.15648 1.2289,-6.8526 m -290.32091,6.8526 1.23585,-1.7124 v -1.7134 m -75.36063,3.4258 v -1.7124 m 0,0 c 1.28827,-8.89319 11.02643,-8.9822 12.35347,-17.136 m 63.00716,15.4226 c 1.62382,-5.62915 5.13264,-8.45093 6.17723,-13.7082 m 282.90783,10.2814 c 2.0801,-3.67506 4.4573,-8.58387 0,-11.9958 m -282.90783,1.7144 c -1.66702,-2.61502 0.87801,-5.1927 -1.23585,-8.572 m 284.14368,6.8576 c 0.01,-3.55264 -3.701,0.12352 -3.6966,-3.4278 m -348.39562,3.4278 c 0.69565,-5.014 0.17376,-7.88454 -3.70554,-10.28639 m 352.10116,6.85859 c -0,-3.55411 -3.7088,0.12354 -3.7065,-3.4298 m 0,0 c 0.2998,-5.27479 -3.6825,-11.5211 3.7065,-13.72018 m -280.44708,13.72018 c 4.57212,-3.84929 3.86987,-8.31795 3.70654,-13.72018 m 172.95744,12.00579 c -5.3609,-5.32035 -5.0946,-12.60227 -7.413,-18.86938 m -240.90506,17.15498 c -3.77542,-0.66801 -5.66927,-7.09794 -6.17723,-10.29139 m 358.27839,0 v -1.7164 m -276.74054,1.7164 -1.23584,-1.7164 v -1.7154 m -80.30201,3.4318 c -1.01891,-4.13578 2.86856,-6.7314 3.70554,-10.29639 m 354.57285,8.57999 c -1.1155,-2.91231 3.4895,-3.98145 2.4677,-6.86359 m -117.3704,5.14819 c 2.2239,0.78406 2.4444,-2.3398 3.7066,-3.43179 M 877.83422,664.971 c 1.54715,-4.92244 -0.83146,-10.19333 2.47169,-15.44757 m 164.30859,12.01578 c 1.9096,-5.30451 5.4733,-10.13405 7.413,-15.44957 m 106.2508,13.73317 c 1.0929,-5.029 1.8802,-16.40579 8.6419,-15.45057 m -365.68245,13.73417 c 1.70071,-0.23606 1.35695,-4.4635 3.70654,-3.43279 m 0,0 c -0.38426,-4.36002 2.37647,-6.05142 0,-10.30138 m 75.36162,5.15119 c 1.8208,-3.00938 -2.1072,-4.16532 -1.23585,-6.86859 m 172.95744,3.4348 c 1.2355,-1.7174 2.4711,-3.43479 3.7066,-5.15219 m 111.1861,3.43479 c 4.3797,-1.15209 7.2646,-3.97245 9.8908,-8.58698 m -371.86671,8.58698 c 0.17832,-3.08068 2.86796,-5.65225 3.70653,-8.58698 m 70.41924,6.86958 c 2.90585,-3.2079 -4.77768,-8.15341 -4.94138,-12.02377 m 181.60542,10.30638 c 3.844,-2.91328 6.8329,-7.30728 8.6519,-12.02477 m 112.425,6.87258 c 1.1549,-2.22429 -2.393,-2.93013 -1.2388,-5.15419 m -366.92138,5.15419 c 2.56408,-5.02466 6.37641,-7.21371 9.88377,-10.30937 m 357.03761,5.15518 v -8.59297 l -1.2389,-1.7194 m -300.20462,10.31237 c -4.20876,-13.1936 4.28363,-26.4226 19.27856,-24.06752 3.18828,1.54077 2.59478,-4.29102 5.42936,-3.43979 m 165.5494,25.78892 c 0,-2.29153 0,-4.58305 0,-6.87458 m -544.8252,5.15618 c -2.40625,-4.47452 -5.8738,-6.62497 -8.64793,-10.31337 m 307.62172,8.59498 1.23485,-1.7194 h 1.23585 m 0,0 c 5.12832,-6.24724 2.61638,-14.16923 7.41207,-20.63273 M 1064.386,622.0381 c -1.2803,-3.69378 2.146,-5.81329 3.7065,-8.59598 m 106.2408,6.87658 c -0.3902,-4.31332 2.385,-7.3482 1.2389,-12.03576 m -529.99808,10.31737 c 0.72777,-4.02677 -5.72952,-5.79895 -3.70654,-10.31737 m -130.95471,8.59797 h -1.23584 m 0,0 -1.23485,-1.71939 m 0,0 -1.23585,-1.7194 m 560.88617,0 c -1.1384,-7.212 7.5149,-9.53608 8.642,-15.47954 m -569.52817,15.47954 c -2.20667,-2.94048 -0.85501,-7.09061 -2.47069,-10.31836 m 670.83656,5.15918 c -0.256,-5.03147 3.7031,-9.14142 4.9453,-13.76215 m -538.64992,13.76215 c -1.23518,-1.71973 -2.47036,-3.43945 -3.70554,-5.15918 m 260.67456,0 c 7.7154,-8.55019 -2.89926,-19.48379 2.47069,-29.26067 m -72.88993,29.26067 c -0.77091,-2.23356 1.56366,-3.46765 2.4707,-5.16118 m -192.72602,5.16118 c -2.22002,-1.25609 -3.49424,-4.94541 -6.17723,-5.16118 m -127.24917,5.16118 -1.23584,-1.72039 m 0,0 c 0.77091,-2.23357 -1.56366,-3.46765 -2.4707,-5.16118 m 575.7054,1.72039 c 3.5808,-2.20422 3.4841,-5.13141 6.1842,-8.60397 m -252.03064,8.60397 c 0.73582,-6.05535 9.98834,-8.49688 11.11961,-13.76814 m -210.02286,13.76814 -1.23585,-1.72039 v -1.7214 m -129.71986,1.7214 c -2.3247,-6.58229 -6.64311,-12.32656 -8.64792,-18.93532 m 688.13632,17.21392 c 0.7431,-8.38935 6.6436,-13.7885 9.8808,-20.6577 m -559.64934,20.6577 c 0.85213,-3.36281 1.77435,-6.49465 1.23585,-10.32635 m 450.93389,5.16417 c 3.6118,-2.59201 3.8955,-9.21684 7.4131,-10.32935 m -248.32413,5.16518 c 2.55254,-1.98916 1.93596,-2.37604 3.70554,-5.16518 m -213.7284,5.16518 c 1.11789,-2.92026 -3.49552,-3.99725 -2.4707,-6.88757 m 460.81769,1.72239 1.2288,-1.72239 v -1.72139 m -245.84739,3.44378 c 1.03403,-2.85234 -2.38464,-10.16059 2.4707,-10.33335 m -218.6698,8.61096 c 4.59127,-3.86158 9.07109,-3.12661 11.11862,-10.33335 m -148.25155,10.33335 -1.23485,-1.72139 m 600.41427,0 c 1.7022,-0.2377 1.3571,-4.4699 3.7066,-3.44479 m -604.12087,3.44479 c -1.12331,-5.34597 4.60089,-9.07423 7.41208,-12.05774 m 691.83989,10.33535 c 2.4728,-4.50005 3.8265,-8.85031 4.9454,-13.78213 m -294.03641,13.78213 c -1.375,-6.86716 -4.57076,-12.65899 -9.88277,-17.22792 m 203.84268,15.50552 h 1.2388 l 1.2388,-1.72239 m 0,0 c 3.4081,-5.2231 4.3055,-11.11531 4.9354,-17.23091 m -254.49629,15.50852 c 2.69152,-2.61721 3.46478,-5.6393 4.94238,-8.61495 m -212.49356,6.89256 c 1.23551,-1.72306 2.47103,-3.44611 3.70654,-5.16917 m -145.78086,1.72339 c 2.62145,-1.14505 -0.14944,-4.02359 2.47069,-5.16918 m 143.31017,3.44579 1.23485,-1.72339 v -1.7224 m 549.76958,1.7224 c 2.5518,-13.09457 -1.9122,-24.16635 4.9354,-36.21418 m -347.15281,36.21418 c 5.99124,-6.7385 6.03529,-16.73472 2.47069,-24.13646 m -210.02286,22.41406 c 5.26162,-6.46947 4.61726,-10.33231 8.64792,-17.2399 m -153.19294,17.2399 c 10.5014,-5.469 19.51863,-13.82466 28.41547,-22.41406 4.89539,6.22984 3.2818,-9.5604 8.64792,-6.90056 m 353.33203,27.59123 c -0.69553,-5.07354 -6.2422,-9.21737 -8.64792,-13.79212 m 219.9036,10.34434 c 7.1384,-11.78495 7.278,-25.82211 11.5369,-38.53701 l 1.6561,-2.31284 1.6332,-2.28087 m -234.7298,32.78638 c -2.11839,-5.50023 -6.50314,-5.71824 -9.88377,-8.62394 m -218.67079,6.89955 c 1.519,-6.44147 -1.35853,-8.10809 -4.94138,-12.07472 m 206.31632,6.90056 c 1.25596,-8.7386 4.24371,-16.65805 -3.70654,-24.16044 m 21.00239,22.43505 c -1.6216,-8.53838 -15.80518,-6.0776 -13.58931,-17.25589 m -210.02286,12.08072 -1.23585,-1.72539 m -109.95232,1.72539 c 1.30187,-3.84385 6.70183,-3.9065 6.17723,-8.62894 m 103.77509,6.90355 c 1.11889,-2.92473 -3.49695,-4.00856 -2.47069,-6.90355 m 554.70498,3.45178 c 2.9351,-3.62114 5.2705,-7.43277 4.9454,-12.08272 m -559.65038,8.63094 1.23584,-1.72539 v -1.72639 M 544.26972,520.415 c -0.30484,-4.76953 -4.99132,-11.18865 -2.47169,-15.53849 m 317.50549,12.08671 c -0.49192,-3.57702 -2.96203,-8.98952 -7.41308,-8.63294 m -205.08048,8.63294 c -1.71279,-6.50841 3.73714,-6.77573 4.94139,-12.08671 m 553.47315,6.90755 v -2.84462 -0.60916 m -353.33406,3.45378 v -2.84462 -0.60916 m 265.61596,1.72639 1.2388,-1.72639 m 86.4793,0 -1.2389,-1.72738 m -85.2404,1.72738 c 6.5973,-8.81114 11.6435,-20.14853 7.4131,-31.10395 m -274.26786,31.10395 c -7.57836,-7.71627 -5.52324,-17.70015 -8.64792,-25.91679 m 360.74308,24.18941 c -4.3404,-6.35984 -6.6352,-14.04275 -12.3484,-17.27587 m -539.88585,15.54948 c -1.92947,-3.89547 3.52752,-7.31611 0,-10.36532 m -109.95332,10.36532 c 0.0129,-2.42648 -3.71848,-2.42648 -3.70554,0 m 0,0 c -2.77522,-2.59165 -0.47424,-7.09171 -1.23585,-10.36532 m 114.89471,0 c 1.51131,-4.51576 1.29086,-9.67215 3.70654,-13.82609 m -118.60125,13.82609 c 0.11788,-3.73316 -5.33437,-4.32207 -1.23484,-8.64093 m 656.0154,3.45677 c -1.6144,-3.04026 -5.3175,-0.92107 -7.4131,-3.45677 m 0,0 c -4.3796,-5.21229 -12.5437,-3.26361 -16.065,-10.37231 m -632.5373,10.37231 c 7.61103,-4.59198 -3.88742,-11.00405 -2.47169,-17.29085 m 516.40969,15.56246 c 0.792,-5.67387 0.9899,-8.9297 -3.7065,-13.83208 m -202.61078,12.1037 c -7.09703,-13.23432 -16.86051,-20.55984 -21.00239,-34.59869 6.52965,-8.65819 -7.74388,-11.78488 -7.41207,-20.78359 M 655.45789,480.6851 c -3.46237,-2.34348 0.68253,-4.33627 0,-6.91654 m 470.70041,3.45777 c -0.6967,-1.6379 1.0998,-4.07665 -1.2388,-5.18715 m 43.2396,3.45877 -1.2389,-1.72939 m 0,0 c -0.273,-4.39932 -5.0931,-9.45909 -1.2288,-13.83907 m -510.23351,13.83907 1.23484,-1.72938 v -1.72939 m 468.22677,1.72939 c -2.2181,-2.95425 -0.8576,-7.13006 -2.4677,-10.37931 m -76.5985,8.64992 v -1.73038 l -1.2388,-1.72939 m -387.92177,3.45977 c -3.27121,-4.59005 1.71358,-9.29207 -2.47069,-13.84107 m -121.07193,12.11069 c -0.1399,-2.40358 -1.28336,-4.83935 -2.4707,-6.91954 m 513.93509,5.19015 v -2.84462 -0.61515 m 0,0 c -2.6111,-1.15991 0.1572,-4.0394 -2.4677,-5.19115 m 80.305,3.46077 c 0.6377,-2.23442 -1.2626,-5.27834 1.2288,-6.92154 m -593.00119,6.92154 v -1.73038 m 635.01199,0 1.2288,-1.73039 m -636.24079,1.73039 c -3.2792,-6.38546 -9.30469,-6.94312 -12.35446,-13.84607 m 648.59525,12.11568 c 0.6961,-1.63947 -1.0996,-4.07902 1.2389,-5.19115 m -126.0123,5.19115 c -0.7774,-6.94557 -7.1278,-9.70233 -7.4131,-17.30983 m -380.51166,15.57945 c -1.2991,-2.97188 0.0871,-5.55692 -3.70554,-8.65392 m 473.1641,6.92353 c 0.318,-5.22263 3.723,-6.2022 4.9454,-10.3863 m 39.5331,8.65592 v -2.84462 -2.34853 m 0,0 -1.6509,-2.31657 -0.8168,-1.1462 m -515.1749,3.46277 c 1.79907,-3.01666 -2.09349,-4.21039 -1.23584,-6.92553 m -130.95571,5.19415 c -4.94715,-3.54336 -2.51506,-6.78739 -3.70554,-10.3903 m 651.07199,8.65891 c -7.0138,-11.07106 7.8402,-19.22754 2.4677,-29.45249 m -39.5331,29.45249 c 0.8089,-5.31895 7.7605,-6.35714 8.6519,-12.12368 m -102.5442,8.66092 c -4.0925,-5.56961 -8.4976,-9.00206 -11.1196,-15.59044 m -374.33344,15.59044 c -2.86059,-1.81464 -1.64945,-4.89368 -3.70654,-6.92853 m -130.95471,1.73238 c -4.92909,-6.91916 -1.8209,-15.51256 -6.17723,-22.52696 m 137.13194,20.79458 c -5.42961,-3.21459 1.8309,-9.26183 -4.94139,-10.3953 m 496.64517,8.66291 c 3.1307,-6.43107 5.2161,-11.93171 3.7066,-19.06219 m -326.15644,13.86505 c -3.83328,-5.28118 -2.42626,-9.08004 -4.94239,-13.86505 m 213.72843,12.13267 c 1.5374,-3.68296 -2.8061,-4.90798 -1.2389,-8.66591 m -688.12834,8.66591 c 6.64068,-5.55806 -2.90611,-9.94882 -3.70654,-15.60044 m 310.09241,13.86705 c -4.62318,-11.27766 -8.88632,-20.4198 -15.23956,-28.32473 -2.75322,-7.15205 -7.72434,6.2068 -13.1749,4.0524 m 410.15693,17.33981 c -2.8597,-1.81729 -1.6439,-4.90108 -3.7065,-6.93453 m 149.4904,5.20115 v -1.73338 m 0,0 c 5.1668,-11.63748 -4.5343,-17.30408 2.4677,-29.49046 m -29.6423,29.49046 1.2288,-1.73339 m -332.32763,1.73339 c 0.82196,-3.29381 -1.65533,-7.79696 1.23585,-10.40429 m -302.67934,10.40429 c 0,-2.88997 0,-5.77994 0,-8.66991 m 633.77112,6.93652 c 10.7138,-5.56572 19.6528,-17.86612 25.9458,-29.49245 m -149.4904,27.75807 c -1.73,-2.22693 -1.2312,-4.87558 -3.7065,-6.93652 m -684.42188,6.93652 c -1.4058,-5.01521 -5.93807,-1.84159 -7.41208,-6.93652 m 185.31394,1.73438 c 1.43924,-2.64534 2.50771,-8.1789 1.23485,-10.40828 m 505.28517,8.6739 c -1.2322,-1.73471 -2.4644,-3.46943 -3.6966,-5.20414 m -200.14408,5.20414 c 0.42313,-7.63382 4.17622,-16.59232 -4.94139,-20.82155 m -483.05189,20.82155 c 2.45528,-5.78456 1.97166,-8.48293 -1.23585,-13.87904 m 290.32588,10.41028 c -4.8082,1.03894 -2.08083,-7.72268 -6.17723,-6.93952 m 405.22456,5.20414 c -1.3877,-3.25643 -2.2118,-4.92144 -4.9454,-6.93952 m -496.64317,3.46976 c 9.9264,-8.58403 11.27749,-14.56549 17.29585,-24.3023 m 79.06816,22.56792 c -4.8939,-2.37625 -9.61109,-4.53652 -13.59031,-8.67789 m 413.86947,6.94251 c -1.0341,-1.0976 -5.3155,-7.85913 -6.1742,-3.47076 m -678.25361,1.73538 c 1.92415,-3.244 3.36336,-9.36442 7.41308,-10.41427 m 670.84053,8.67889 c -4.64817,-0.95632 -5.84511,-5.14791 -6.18124,-8.67889 m 176.66204,5.20714 -1.2289,-1.73538 h -1.2388 m -575.70837,1.73538 c -3.66401,-8.21575 -9.73868,-12.38323 -13.58931,-19.10117 m 589.29768,17.36579 c -2.2493,-5.33956 -5.3702,-11.97313 -12.3485,-10.41827 m -349.63047,10.41827 c -2.77373,-2.36093 -5.23917,-5.12836 -7.41308,-8.6809 m 195.19771,5.20914 c -2.64762,-1.01846 -5.33459,-4.67621 -7.41207,-6.94651 m -657.24722,6.94651 c 6.4716,-0.99424 12.9703,-1.33984 17.29585,-8.68289 m 452.16573,3.47375 c -5.31619,-12.40853 -12.83879,-21.83185 -13.5893,-35.86178 -4.61193,-12.94415 -4.31412,-27.62618 -16.06101,-37.183 -1.08598,-4.72701 1.31348,-7.8703 1.23585,-12.19561 m 385.45801,83.50302 -1.2388,-1.73638 h -2.4677 m -165.55141,1.73638 c 0.91029,-4.04996 -3.56515,-4.60389 -4.94239,-6.94752 m 170.4938,5.21114 c -5.7787,-11.31243 -21.4607,-18.2812 -17.3039,-33.02116 -1.4019,-5.0187 -5.9344,-1.86508 -7.413,-6.95751 m -600.41432,39.97867 1.23584,-1.73638 h 2.47069 m -184.07809,1.73638 1.23485,-1.73638 m 182.84324,0 c 3.97164,-2.46013 4.79064,-6.4644 7.41308,-10.42427 m -190.25632,10.42427 c 4.10524,1.46957 4.54327,-4.944 8.64792,-3.47476 m 625.12621,0 c -2.96962,-7.82824 -4.31657,-17.15845 -11.11861,-22.5929 m -391.63027,22.5929 c -8.25469,-12.3087 -13.3562,-22.11601 -24.70893,-29.5494 l -1.23484,-1.73938 m -196.43356,31.28878 c 1.31,-11.00731 9.90138,-19.32097 12.35446,-27.81002 m 169.25394,20.86051 c -0.35685,-9.82472 -3.5267,-17.01694 1.23485,-26.07864 m 431.16435,10.43525 c -7.82288,-10.65399 -15.70884,-11.18625 -19.76654,-19.13413 -3.7549,-10.49655 -17.91464,-15.39772 -14.82516,-29.60036 -3.57262,-11.80175 1.33913,-22.28407 -1.23585,-35.32657 -2.87437,-12.87249 14.71246,-11.25361 7.41308,-25.7314 m -573.23867,104.57534 1.23585,-1.73938 m 0,0 c 2.10666,-1.98322 3.7612,-4.50834 7.41208,-3.47875 m 175.43117,1.73937 c -4.53235,-7.26174 -6.76575,-13.6217 -14.82516,-15.65937 m 1.23485,13.92 c -3.11138,-3.70686 -2.81867,-9.27871 -1.23485,-13.92 m -160.60601,13.92 c 13.37063,-8.76556 -1.92948,-18.35822 -7.41208,-26.10662 m 757.3128,24.36724 c 2.4084,-5.54135 -5.8163,-8.0737 0,-12.18062 m 0,0 c -0.1483,-4.25884 -5.6603,-6.291 0,-10.44525 m -589.29471,10.44525 c 0.69251,-5.36964 -1.65035,-9.83394 -4.94238,-13.928 m 594.23709,3.48275 c -0.3099,-4.84401 -11.9772,-6.918 -7.4131,-13.93399 m -749.8997,12.19262 c -4.59977,-5.1537 7.85885,-5.69517 6.17723,-10.45124 m 156.89848,8.70986 c -2.57874,-9.61651 4.607,-17.32496 -7.41208,-24.39421 m 544.82217,6.97248 c -6.6332,1.09699 -14.45,-0.54099 -17.2938,10.45424 m 0,0 c -7.355,0.0769 -12.4281,-5.10078 -19.7716,-5.22612 m -2.4676,1.74237 c -4.5685,2.65876 -10.0891,-1.70545 -16.065,1.74138 m 0,0 -1.2289,-1.74138 m -637.48167,1.74138 v -2.84462 -0.63913 m 743.72247,1.74237 c -7.0518,0.0521 -12.6547,-2.86964 -18.5227,-5.22811 m -67.9566,3.48574 -1.2288,1.74237 m 0,0 h -1.2388 m -17.2939,0 c -8.3931,-0.23847 -12.8405,-3.06726 -19.76854,-10.45623 m 96.36704,6.97149 c -4.0131,1.13902 -7.2914,2.49268 -12.3585,1.74237 m 0,0 c -2.7166,-1.56588 -5.8744,-1.41241 -7.4131,-5.22812 m -694.30857,5.22812 c 6.08821,-12.30906 0.74436,-25.40582 -1.23585,-38.36417 h -2.47069 m 723.96091,31.39368 c -3.2816,-0.86586 -2.9078,5.9717 -6.1742,5.22812 m 11.1196,-1.74337 c -1.7399,-0.98448 -1.7534,-5.31464 -4.9454,-3.48475 m -326.15341,3.48475 c -3.38397,-6.89686 -9.5876,-10.80926 -13.58931,-19.17709 m 237.20148,13.94897 c -3.12122,-1.76412 -5.08615,-5.80143 -8.64792,-6.97349 m -459.57881,3.48675 c -0.53484,-11.80016 -5.63495,-21.24954 -13.58931,-29.65431 m 473.16812,26.16756 c -2.39601,-3.99557 -5.90149,-1.89227 -8.64792,-5.23111 m 0,0 c -5.17717,0.93097 0.23742,-7.7626 -4.94139,-6.97649 m -214.96425,5.23212 c -4.11311,1.4745 -4.53635,-4.96191 -8.64892,-3.48775 m 0,0 c -10.14821,-11.5397 -14.20331,-27.29768 -28.41447,-33.16502 m 252.02764,31.42065 -1.23584,-1.74437 m 0,0 c -4.93629,-1.57024 -7.98447,-4.94704 -11.11862,-10.47022 m -586.82798,1.74537 c -5.4314,-7.96563 -16.08174,-10.66265 -19.76654,-19.20407 m 606.59452,17.4587 c -4.48014,-7.37828 -8.55707,-17.89927 -17.29585,-19.20606 M 418.2554,251.39523 c -9.91069,-5.71191 -18.22651,-14.49893 -25.94377,-24.44617 h -1.23485 m 121.07194,22.7008 c -8.3953,-9.93245 -28.96178,-28.62001 -23.47408,-27.94291 3.93992,-8.49017 -1.80532,-20.2665 -12.35346,-13.98394 m -160.60602,29.70626 c -11.92771,-4.17876 -8.37471,0.851 -18.53169,-12.22758 -1.84827,-1.35781 -3.22097,-4.43634 -6.17623,-3.49474 m 43.23962,10.48222 c -10.03643,0.56012 -13.95414,-4.30346 -18.5317,5.2401 m 59.30062,-5.2401 c -3.43137,2.66243 -7.66909,1.59231 -12.35446,1.74736 m 0,0 h -1.23485 m 0,0 c -2.88264,0 -5.76528,0 -8.64792,0 m 0,0 c -7.03539,0.52833 -10.9269,-3.1968 -18.53169,-1.74736 m 607.83036,0 c -1.70517,-2.85739 -5.85055,-1.89949 -7.41308,-5.24011 m -214.96425,5.24011 c -3.28906,-12.98955 -16.56123,-19.91899 -25.94377,-26.21452 M 381.19301,230.4428 c -3.59017,-2.37707 -2.58705,4.12345 -6.17723,1.74637 m 16.061,-5.24011 c -3.67254,0.33187 -7.3845,0.73082 -9.88377,3.49374 m -90.18577,-8.73585 c -2.87823,1.67644 0.35318,5.29537 -2.4717,6.98848 m 0,0 c -10.28666,-2.7868 0.49454,-27.02842 -14.82515,-13.97995 m 660.95375,12.23358 c -4.61867,-3.98252 -1.63569,-12.50422 -8.64792,-13.98094 m -531.2339,10.4862 c 0.035,3.61791 -3.74056,-0.12317 -3.70554,3.49474 M 255.1797,214.71548 c 9.74059,20.05748 -12.1341,1.13397 -17.29585,12.23358 m 0,0 c -6.02238,-3.38583 -6.7476,-11.93156 -12.35447,-15.72931 m 179.13671,6.99147 c -3.70081,0.55919 -5.68258,5.75666 -9.88377,5.2431 m 11.11962,-6.99047 -1.23585,1.74737 m 16.06101,-19.23204 c -4.59822,6.49497 -9.4397,12.53242 -14.82516,17.48467 m -132.19155,-1.74837 c -6.47028,-3.11892 -3.94737,-16.33492 -17.70183,-1.17274 l -0.82886,1.17274 m 670.83652,-1.74736 c -0.20296,-6.88236 -4.74886,-12.53978 -2.47069,-19.23704 m -447.22435,13.99193 c -10.89553,-7.32195 -10.8838,14.45612 -17.29585,-3.49773 v -1.74837 l -1.23585,-1.74936 m 0,0 c -8.65572,12.25651 -17.56318,9.38483 -25.94377,-1.74837 -2.71685,0.0124 -2.17529,-3.54361 -6.17723,-1.74937 m -200.1391,13.98994 c 8.27165,-23.491 -13.82396,9.71518 -14.82515,-12.24057 -8.4325,-8.82882 -9.28964,-2.4849 -18.53169,1.74837 m 501.58358,5.2471 c -5.29964,-9.24356 -15.1856,-5.2475 -14.82515,-20.9924 m -486.75843,15.7453 c -7.37932,-18.94855 -16.24859,7.79102 -17.29585,-15.7453 -7.456,3.36543 -14.7745,-12.30338 -22.23724,-1.75036 m 273.02903,13.99792 c -3.21501,-2.44419 -2.38916,2.91383 -4.94138,1.74937 m 0,-10.4972 c 0,3.49907 0,6.99813 0,10.4972 m 502.81843,-5.2481 c -3.48407,-8.90208 -11.95454,-9.34284 -16.061,-15.75129 m -274.26488,0 c -14.73878,2.38723 -18.53435,5.13203 -30.88515,8.75183 -9.269,0.71608 -13.00431,1.26068 -21.00239,5.25009 m 0,0 c -2.67731,-9.56831 -9.02987,-5.19818 -14.82515,-3.49973 m -413.86751,-5.25009 c -16.69132,11.25613 -13.55998,-2.08989 -26.31869,-8.75283 -1.81367,-0.77371 -1.3301,2.88668 -3.33162,1.75036 m 443.51782,12.25256 h -1.23585 l -1.23485,-1.75036 m -80.303,-52.55792 c -8.82491,5.27384 -26.01104,6.55839 -24.70793,21.03735 -10.69831,4.29737 -18.6042,13.97975 -27.58468,21.59236 -5.88093,3.57889 -4.60357,8.92467 -10.71355,11.67857 m 255.73317,-7.00046 c -4.37106,0.0811 -7.43967,3.83628 -11.11861,5.2501 m 0,0 c 5.38378,-13.90528 -27.6795,-17.13007 -22.64247,-13.43107 -2.39084,3.56264 -8.43841,-1.97497 -9.47954,4.67924 m -69.18339,8.75183 c -8.32858,-3.99813 -14.7242,-6.87062 -21.40725,-9.92878 -5.99725,-7.67672 -24.73135,-2.8885 -28.0096,-11.0806 -0.69853,-5.29657 -7.81631,-1.15375 -12.35446,-5.2551 m 176.66602,24.51511 -1.64027,-2.32409 -0.83043,-1.17664 m 231.02426,-3.50173 c -8.4436,-4.40249 -0.13216,-11.78962 -1.23485,-15.76028 m -783.26054,14.00991 c -1.17539,-11.09713 -8.7629,1.54445 -13.5903,-5.25309 m 0,0 c -7.8538,-7.96098 -14.693421,-20.67053 -24.70833,-14.01291 h -1.235446 m -23.473079,0 C 48.264913,152.17748 49.586811,166.04318 41.45059,167.4736 m 0,0 c -1.460871,-5.26064 -6.405811,-3.89651 -9.88347,-10.51018 m -17.295947,5.25609 c -7.1800136,3.90165 -18.2388654,8.95667 -27.179418,3.50273 m 919.157925,-3.50273 c -3.49852,-1.60451 -6.48856,-2.9811 -9.88377,-5.25609 m -864.79879,0 c -4.383659,3.18122 -11.3089,0.29893 -14.825155,5.25609 m 0,0 h -2.470792 m 487.993777,-1.75237 c -6.86899,-4.59828 3.0058,-9.81758 0,-14.0199 m 394.10096,10.51618 c -4.88224,-12.6245 9.46776,9.07102 3.70654,-10.51618 M 83.455064,156.96342 c -2.056176,-6.06768 -5.216621,3.01702 -6.177132,-1.75237 m -1.235446,-5.25809 c -11.440185,-0.79725 -11.014448,-7.05144 -16.060501,7.01046 m 17.295947,-1.75237 c -0.682809,-1.66677 1.090948,-4.11245 -1.235446,-5.25809 m 824.029964,-3.50572 c -0.24904,-3.86538 -4.69422,0.36112 -4.94139,-3.50573 m -373.09957,-5.26009 c -9.88221,-10.52348 -0.89138,14.74376 -19.76654,8.76582 m 0,0 c -4.24656,-7.99647 -12.81633,-7.1678 -18.53169,-12.27354 m 411.3978,8.76781 1.23485,-1.75336 m 0,0 c 1.68303,-7.26136 3.71509,3.39409 3.70654,-7.01445 m -369.39304,0 c -5.82685,0.40502 -6.25129,-4.95971 -8.64792,3.50772 m 378.04096,-3.50772 c 1.96254,-1.26293 1.14541,-3.40604 1.23484,-5.26209 m -343.44826,-5.26308 c -13.34523,-1.35838 -13.05521,9.17385 -27.17962,10.52517 m 370.62788,-5.26209 c -4.22847,-6.06509 0.85077,-16.09458 -3.70553,-22.81669 m -334.80134,15.79825 c -2.97467,0.47265 -5.19124,-3.72376 -4.94139,1.75536 m 14.82516,-14.04189 c -4.83398,-5.98495 -10.28531,10.04524 -9.88377,12.28653 M 586.2735,92.043743 c -2.04523,9.709217 -12.99451,7.081704 -13.58931,17.562897 m 324.91757,-3.51172 c 2.52696,-2.13199 -1.5326,-5.54967 0,-8.780899 M 612.21827,83.257248 c -9.39228,3.33545 -17.2381,7.932881 -22.23824,17.569592 m 0,0 c -5.19253,0.29528 -0.29443,-7.002952 -3.70653,-8.783097 m 311.32826,5.270278 -1.63631,-2.326884 -0.83439,-1.186535 m 0,0 c -1.52248,-2.150322 -3.74414,-2.338394 -4.94238,-5.271077 m 0,0 c 2.90681,-3.340061 -1.46978,-6.906038 2.47069,-10.545652 m -240.90802,1.757958 c -10.95264,-0.706703 -25.22969,-2.162967 -38.29824,1.757759 l -1.23484,1.757658 M 762.93951,60.397497 c -15.15194,-7.957105 -18.49572,4.749588 -29.65031,3.518314 -11.21831,10.506823 -10.43751,-15.305168 -22.23723,-1.759057 -8.94059,11.388394 -24.22555,1.122507 -31.68535,13.449069 0.12171,5.592329 -5.79448,3.882065 -9.08358,5.893767 m 0,0 c -4.37177,-2.572066 -13.81724,-5.863914 -18.53169,-1.757759 m 240.90802,-1.757958 c -2.19632,-3.115692 -2.24395,-5.453711 -1.23485,-8.79159 m 0,0 c -3.60914,-10.634606 -6.2433,-8.116183 -9.88377,-19.352827 m -114.8947,-3.520412 c -3.10451,4.283559 -1.3169,9.604896 -3.70654,14.078453 m 25.94477,-10.558041 c -11.79865,3.833433 -14.9595,7.817165 -22.23823,-3.520412 m 82.7737,-1.760456 c -10.4491,6.69313 -15.64437,2.582187 -28.41446,1.760456 -1.79793,-5.356692 -2.30076,3.114999 -4.94239,1.760256 m 65.47785,1.760156 c -5.47242,2.202344 -8.06822,-8.571412 -13.5893,-3.520412 M 816.0629,48.0793 c -8.78221,1.086199 -9.98365,-7.147061 -19.76654,-3.520712 m 0,0 c -2.62293,-6.059434 -5.31871,4.151642 -7.41208,5.280868 m 79.06717,-3.520412 -1.23585,-1.760456 h -2.47069 m 0,0 c -1.70881,-7.545732 -5.1366,2.223558 -14.82516,0" />
  <path
     vector-effect="none"
     d="m 231.71761,238.09765 0.32869,-0.69535 v -0.34768 l 0.57346,-0.81124 -0.32769,-0.11589 -0.0819,-0.46357 0.16384,-0.34768 0.0819,-0.11589 h 0.16384 l 0.3277,0.11589 0.0819,0.34768 0.16385,-0.23178 h 0.41061 l 0.24577,-0.57946 V 234.505 l -0.90215,-0.46356 -0.16385,-0.23179 -0.16385,-0.11589 -0.32769,-0.46357 -0.0819,-0.34767 h -0.16385 l -0.0829,-0.23179 v -0.57945 l 0.16484,-0.57946 0.57347,-0.57946 h 0.0819 l 0.40962,-0.69535 h 0.16384 l 0.16485,-0.34768 h 0.0819 l 0.16385,-0.46357 0.16385,-0.11589 0.0819,-0.23178 0.16385,-0.11589 0.57346,-0.92814 0.24677,-0.11589 0.49154,-0.46356 0.40962,-0.1159 h 0.0819 v 0.23179 l -0.16384,0.34767 v 0.11589 l 0.40961,-0.34767 h 0.24677 l -0.0819,-0.46357 0.24577,-0.23178 h 0.24577 l 0.16385,-0.23179 h 0.32769 l 0.0819,-0.11589 h 0.65638 l 0.0819,-0.11589 1.22985,0.23178 0.0819,0.1159 0.73731,0.23178 0.73831,0.34768 0.40962,-0.34768 0.57347,-0.23178 0.90215,-1.04303 h 0.0819 l 0.24577,0.11589 0.0819,0.34768 0.16385,-0.11589 0.0819,-0.1159 -0.24577,-0.23178 -0.0819,-0.34867 0.16384,-0.23179 h 0.3287 l 0.24577,-0.46356 0.32769,-0.23179 0.40962,-0.11589 0.16385,-0.23178 0.41061,-0.1159 0.24577,-0.11589 0.16385,-0.11589 0.32769,-0.11589 0.16385,0.11589 -0.0819,0.46357 -0.24577,0.23178 -0.49154,0.23179 -0.0819,0.23178 0.57347,-0.23178 0.49154,-0.46357 0.41061,-0.11589 -0.16384,-0.23179 -0.24677,-0.23178 0.0819,-0.23278 h 0.57447 l 0.0819,-0.11589 h 0.65539 l 0.16384,-0.1159 0.16485,0.1159 0.57346,0.11589 0.0819,0.11689 h 0.57346 l 0.0819,-0.11689 h 0.24677 l 0.0819,-0.11589 h 0.16385 v -0.1159 l 1.066,-0.46356 h 0.0819 0.49154 l 0.0819,-0.1159 h 0.65539 l 0.16484,0.1159 h 0.24577 l 0.65539,0.57946 0.98408,0.34867 0.65539,0.46357 0.24577,0.34767 v 0.23179 l 0.41062,0.23178 0.16384,0.34767 h 0.40962 l 0.0819,0.1159 h 0.40962 l 0.57447,0.34867 h 0.16384 l 0.16385,0.11589 v 0.11589 l -0.40962,0.34768 h -0.24577 l -0.16385,0.11589 h 0.0819 l 0.57346,0.11589 0.16385,0.11589 h 0.24577 l 0.49254,0.34768 0.16385,0.34768 0.49154,0.34767 0.0819,0.34768 h 0.16385 l 0.16385,0.46356 0.32869,0.11689 0.0819,0.23179 0.24577,0.11589 v 0.23178 l 0.24577,0.23179 0.0819,0.46356 0.24577,0.34768 0.0819,0.81124 0.16385,0.11589 v 0.23179 l 0.0819,0.46356 0.16485,0.57946 v 0.46357 l -0.16485,0.57946 -0.24577,0.23178 h -0.0819 l -0.16385,0.57946 -0.16385,0.11589 -0.16384,0.57946 v 0.69535 l -0.16385,0.23179 0.0819,0.23178 v 0.92713 l -0.16384,0.34768 v 0.81124 l -0.0819,0.11589 -0.0819,0.57946 -0.16485,0.11589 v 0.23179 l -0.65539,0.92713 -0.40961,0.23178 -0.24577,0.46357 -0.16485,0.23179 0.0819,0.34767 -0.0819,0.81024 -0.32769,0.57946 -0.57347,1.3907 -0.49254,0.81125 -0.81923,0.57846 -0.40962,0.34767 h -0.16385 l -0.0829,0.11589 h -0.32769 l -0.16385,0.1159 h -0.49154 l -0.3277,0.34767 h -0.32869 l -0.0819,0.11589 h -1.96717 l -0.0819,-0.11589 -0.40962,-0.11589 -0.41061,-0.23178 h -0.3277 l -0.0819,0.11589 h -1.22985 l -0.0819,-0.11589 h -1.72139 l -0.32769,0.23178 h -0.32869 l -0.0819,0.11589 h -0.40962 l -0.0819,0.11589 h -0.32769 l -0.57447,0.46357 h -0.81923 l -0.0819,-0.11589 -0.82023,-0.23179 h -0.0819 -0.49154 -0.0819 -0.57446 l -0.32769,-0.23178 -0.3277,-0.57946 -0.16385,-0.11589 h -0.24577 l -1.22985,-0.69535 -0.32769,-0.11489 -0.41062,0.11489 -0.40962,0.34767 h -0.24577 -0.0819 l -0.24577,0.1159 -0.16385,0.11589 -0.32869,0.23178 -0.16385,0.57946 -0.57346,0.23178 h -0.0819 l -1.066,0.23179 -0.0819,-0.11589 h -0.49154 l -0.0819,-0.1159 -0.32869,-0.23178 -0.16385,-0.23178 v -0.23179 l -0.32769,-0.34767 v -0.34768 l -0.0819,-0.11589 0.0819,-0.69435 0.16385,-0.34768 -0.16385,-1.3907 -0.0819,-0.11589 v -1.73738 l -0.24578,-0.23178 -0.49254,-0.11589 -0.49154,-0.46357 -0.49154,-0.69535 -0.32769,-0.23178 -0.32869,-0.57946 v -0.69535 0 m 4.01824,-9.96969 h 0.021 v -0.009 h -0.021 v 0.009 m -0.038,0.034 h 0.01 v -0.007 h -0.01 v 0.007"
     fill-rule="evenodd"
     id="path608"
     style="font-style:normal;font-weight:400;font-size:50px;font-family:'MS Shell Dlg 2';fill:#7d8b8f;fill-opacity:1;stroke:none;stroke-width:0.999067;stroke-linecap:square;stroke-linejoin:bevel" />
  <path
     vector-effect="none"
     d="m 436.83106,176.71997 0.32869,-0.93014 0.65539,-0.92913 0.16384,-0.34867 0.16385,-0.11589 0.16485,-0.23279 0.16384,-0.11589 v -0.23278 l 0.3277,-0.23178 v -0.23279 l 0.40962,-0.69735 0.32769,-0.11589 0.57446,-0.69735 0.24577,-0.11589 v -0.11589 l 0.40962,-0.69735 h 0.16385 l 0.24577,-0.34867 0.24677,-0.11689 0.40962,-0.34768 1.31177,-1.74337 h 0.16385 l 0.32769,-0.58146 h 0.16385 l 0.24577,-0.34867 0.24677,-0.11589 0.24577,-0.46557 h 0.16385 l 0.98408,-1.04602 0.0819,-0.11589 0.32769,-0.46457 1.06601,-0.69735 0.24577,-0.34867 0.24577,-0.11689 0.16385,-0.34868 v -0.34867 l 0.24577,-0.34868 0.0819,-0.46456 0.32869,-0.34868 0.0819,-0.58145 0.57346,-0.58146 -0.0819,-0.46457 0.24577,-0.34867 v -0.46557 l 0.49154,-0.23278 h 0.24677 l 0.0819,0.11689 h 0.0819 l 0.57346,-0.58146 h 0.65639 l 0.0819,-0.11589 0.65539,-0.11689 0.0819,-0.11589 h 2.21394 l 0.32769,-0.58146 0.16385,-0.11589 h 0.32769 l 0.16385,-0.11689 h 0.16384 l 0.0819,0.11689 h 0.65638 l 0.81924,0.58046 0.16485,0.46556 0.16384,-0.11589 h 0.24577 v -0.11689 h 0.24577 l 0.0819,-0.11589 0.65638,-0.23278 0.0819,-0.1159 H 459.13 l 0.3277,-0.58145 -0.24578,-0.93013 v -1.86027 l 0.90216,-1.62848 v -1.39569 l 0.24577,-0.34868 v -0.23278 l 0.49154,-0.69735 v -0.69835 l 0.16385,-0.58145 0.24577,-0.23279 0.0819,-0.23178 0.41062,-0.34967 0.16385,-0.23278 0.32769,-0.23179 h 0.40962 l 0.0819,-0.23278 h 0.49254 l 0.16385,-0.11689 h 1.55755 l 0.98408,0.93113 0.57346,0.11589 0.16385,0.23278 h 0.49154 l 0.24677,0.11589 h 0.57346 l 0.0819,0.1169 h 0.82023 l 0.0819,0.11589 h 0.49155 l 0.24577,0.11689 0.16384,-0.11689 h 1.14793 l 0.16385,0.11689 h 0.90216 l 0.16384,0.11589 h 0.24577 l 0.40962,0.34867 -0.32769,-0.58145 0.0819,-0.23279 h 0.24577 l 0.0819,0.1169 h 0.24677 l 0.3277,0.23278 0.49154,0.23278 1.066,1.51159 v 0.23278 l 0.24577,0.34868 v 0.11589 l 0.57347,0.93113 v 0.23178 l -0.16385,0.11689 -0.0819,0.23279 -0.3277,0.11589 v 0.23278 l 0.16385,0.11589 0.24577,-0.11589 h 0.57446 l 0.16385,0.11589 0.16385,0.34868 v 1.04702 L 476.51,155.9154 h -0.49254 l -0.16385,-0.1169 -0.0819,0.34868 -0.16385,0.11689 -0.16384,0.58146 -0.49154,0.46456 v 0.58146 l -0.24577,0.46556 -0.49254,0.23179 -0.0819,0.46556 -0.40962,0.1159 -0.40961,0.58145 -0.57447,0.34868 v 0.34867 h -0.0819 l 0.0819,1.27881 -0.40961,1.16291 -0.24577,0.23278 -0.0819,0.1159 -0.24577,0.46456 -0.16484,0.11689 -0.0819,0.23179 -1.14693,0.81424 h -0.32869 l -0.0819,0.11589 h -0.49154 l -0.24578,0.23278 -0.0819,0.46457 -0.16385,0.11589 -0.16384,0.58145 -0.16485,0.81325 -0.16385,0.23278 h -0.24577 l -0.16384,0.46456 h -0.16385 v 0.69735 l 0.32769,0.69735 v 0.69735 h -0.0819 v 0.58146 l -0.40962,0.92913 -0.16384,0.34867 -0.24677,0.1159 -0.24577,0.34867 -0.57347,0.46557 h -0.40962 l -0.0819,0.11589 -0.41062,0.11589 0.41062,0.23278 -0.0819,0.46457 -0.49254,0.11589 -0.3277,0.34867 -0.40961,-0.11589 -0.16385,-0.34867 -0.24677,0.11589 v 0.34867 l -0.16385,0.11689 v 0.46457 l 0.16385,0.11589 v 1.51059 l -0.16385,0.34868 h -0.16385 l -0.0819,0.58045 -1.14793,0.92914 h -0.24577 l -0.16384,0.81324 -0.16385,0.34867 h -0.0819 l -0.24578,0.69735 -1.72139,0.69635 v 0.58146 l -0.24677,0.81224 -0.16384,0.11689 -0.3277,0.46457 -0.0819,0.11589 -0.16385,0.23178 -0.0819,0.23278 -0.65639,0.46457 -0.24577,0.34867 h -0.0819 l -0.0819,0.34768 -0.24577,0.11689 -0.0819,0.23178 -0.40962,0.23279 v 0.92913 l -0.16484,0.46456 -0.16385,0.23179 -0.16385,0.11589 -0.0819,0.34867 -0.16385,0.1159 -0.0819,0.23278 -0.0819,0.11589 -0.16384,0.46457 -0.40962,0.11589 -0.16485,0.34867 h -0.16384 l -0.16385,0.23179 -0.40962,0.23278 h -0.24577 l -0.32769,0.34767 h -0.73831 l -0.0819,0.1159 h -0.32769 l -0.0819,0.11689 h -0.24577 l -0.3287,0.34767 -0.0819,0.46457 -0.32769,0.58046 -0.16385,0.92913 -0.24577,0.11589 v 0.23278 l -0.57447,0.69635 h -0.24577 l -0.16384,0.23179 h -0.65539 l -0.32869,0.23278 h -0.40962 l -0.0819,0.11589 h -0.3277 l -0.0819,0.11589 h -0.49254 v 0.11589 h -0.3277 l -0.24577,0.34868 -0.57346,0.11589 v 0.11589 h -0.32869 l -0.0819,0.11689 h -0.32769 l -0.0819,0.11589 h -0.57346 l -0.0819,0.1159 -0.3287,0.11589 -0.0819,0.11589 -0.40962,-0.11589 -0.40961,-0.34768 -0.0819,-1.04502 -0.32869,-0.58046 v -0.34867 l -0.0819,-0.1159 v -1.39369 l -0.0819,-0.1159 -0.0819,-0.92913 -0.65539,-0.92813 -1.31177,-0.69735 -0.40962,-0.58046 -0.16385,-0.23178 v -1.27781 l 0.40962,-0.46456 h 0.0819 l 0.24577,-0.34868 h 1.80332 l 0.90216,0.69735 0.40961,-0.23278 0.0819,-0.34768 -0.3277,-0.58145 -0.65539,-0.1159 -0.49254,-0.34867 h -0.49154 l -1.31177,-1.16092 -0.57347,-0.11589 -0.41061,-0.23278 -0.24577,0.11589 -0.0819,0.11689 h -0.40961 l -0.0819,0.11589 h -0.57446 l -0.16385,0.23179 h -0.57346 l -0.24577,-0.34768 h -0.3287 l -0.32769,-0.58146 -0.73731,-3.25196 -0.0819,-0.11589 v -0.34867 l -0.16385,-0.58046 -0.0829,-1.62648 v 0 m 13.03482,-16.83428 h 0.04 v -0.019 h -0.04 v 0.019 m 23.52903,-9.78486 -0.16385,0.11589 0.40962,0.23278 -0.0819,-0.23278 -0.16385,-0.11589 v 0 m 1.3937,2.32582 h -0.0819 v 0.11589 h 0.16384 l -0.0819,-0.11589 v 0 m -0.49254,-1.16291 -0.0819,-0.11689 h -0.16385 l 0.0819,0.46556 0.16385,-0.11589 v -0.23278 0"
     fill-rule="evenodd"
     id="path612"
     style="font-style:normal;font-weight:400;font-size:50px;font-family:'MS Shell Dlg 2';fill:#7d8b8f;fill-opacity:1;stroke:none;stroke-width:0.999067;stroke-linecap:square;stroke-linejoin:bevel" />
  <path
     vector-effect="none"
     d="m 330.79708,232.91249 v -5.87252 l 0.4266,-0.003 v -1.21986 l 0.22579,-0.1139 0.0549,-0.60244 0.38664,-0.02 0.054,-0.30072 h 0.59744 l 0.055,-0.30171 0.93313,-0.02 0.12188,0.3217 0.63841,0.0559 0.014,0.24477 0.85221,0.0559 0.45058,0.56447 h 0.86019 l 0.0679,-0.30072 1.03803,-0.019 0.0539,-0.28173 0.81024,-0.019 0.12089,-0.30072 h 1.63647 l 0.65039,-0.94112 V 222.728 l 0.65239,-1.05302 -9.9e-4,-0.48954 0.44058,-0.11389 0.27874,-0.92214 0.37465,-0.021 0.54549,-0.62042 h 1.75936 l 0.1079,0.3197 h 0.77128 l 0.31571,0.29772 0.0539,-0.27874 0.59744,-0.019 0.12088,-0.3197 h 0.7573 l 0.1089,-0.30172 h 1.42167 l 0.1089,-0.30072 h 2.62155 l 0.77328,0.92214 h 0.2098 l 0.054,-0.30072 0.59744,-0.019 0.054,-0.28274 1.37272,-0.019 0.12288,0.30172 0.41262,0.0579 0.014,0.26176 0.4236,0.058 0.016,0.24277 0.4236,0.0579 0.015,0.26376 0.4246,0.0569 0.014,0.24478 h 2.38976 l 0.0539,-0.28274 0.82324,-0.019 0.0559,-0.30272 0.81025,-0.019 0.0659,-0.28174 0.37365,-0.019 0.27874,-0.60044 0.37265,-0.021 1.37072,-2.143 0.38664,-0.021 0.0539,-0.30072 h 0.59944 l 0.54649,-0.62342 h 2.62355 l 0.11988,0.30172 0.42661,0.0599 0.014,0.26175 0.41162,0.058 0.23878,0.56347 0.6404,0.0559 0.23877,0.54549 0.41262,0.058 0.015,0.26275 1.63348,-0.001 0.12189,0.30172 0.8512,0.0559 0.015,0.26375 1.52257,-0.3197 0.055,-0.28074 0.38464,-0.02 0.21281,-0.3187 0.2128,-2.05209 0.66538,-1.03603 0.2128,-1.43066 0.43959,-0.1149 0.27974,-0.60243 1.02604,-0.018 0.0659,-0.28273 0.37265,-0.019 0.0659,-0.30272 0.81024,-0.3177 0.0559,-0.30372 h 1.15891 l 0.1089,0.30172 0.86619,0.0579 0.22579,0.56448 h 1.19689 l 0.11988,0.30171 0.41262,0.058 0.015,0.26176 0.42561,0.0559 0.23877,0.56548 0.41262,0.0559 0.23778,0.35567 0.2078,-0.1089 0.0539,-0.30271 h 0.38664 l 0.70534,-1.22186 0.38664,-0.021 0.26575,-0.60444 1.03803,-0.018 0.053,-0.30172 h 0.38564 l 0.0529,-0.30072 0.38564,-0.019 0.055,-0.28274 0.38464,-0.019 0.0539,-0.30072 0.38564,-0.019 0.0529,-0.28274 0.37365,-0.018 0.0659,-0.30172 0.81025,-0.3177 0.054,-0.30372 h 0.59944 l 0.12088,-0.3197 h 0.73532 l -0.40463,-0.12488 -0.43859,-0.62342 -0.015,-0.56547 -0.41062,-0.35667 -0.015,-0.56547 -0.22579,-0.11589 v -1.86626 l 0.22778,-0.1119 0.70535,-2.45171 0.60043,-0.019 0.49055,-0.60244 0.60044,-0.019 0.49054,-0.60244 0.59844,-0.019 0.056,-0.28274 1.03603,-0.018 0.0679,-0.30172 h 1.02304 l 0.12189,-0.3217 h 1.63547 l 0.053,-0.28273 0.38564,-0.019 0.053,-0.30172 0.81124,-0.31771 0.055,-0.30371 0.82423,-0.018 0.0539,-0.28273 0.59844,-0.019 0.12089,-0.30172 h 1.19588 l 0.42461,-1.42967 0.43959,-0.43259 v -0.50953 l 0.44158,-0.11589 0.27874,-0.60244 0.37265,-0.019 0.28074,-0.90415 0.82323,-0.019 0.1099,-0.30171 h 1.74337 l 0.12189,0.30171 0.8512,0.37665 0.23978,0.54649 0.4246,0.0559 0.2228,0.37065 0.2118,-1.23584 1.14493,-1.63747 0.38664,-0.021 0.0539,-0.30172 h 0.59744 l 0.0539,-0.30172 0.82423,-0.3197 0.055,-0.60444 0.59744,-0.019 0.12189,-0.30172 h 1.19488 l 0.2138,-1.43066 0.87718,-0.4326 0.0559,-0.30371 1.25083,0.30171 0.49254,-0.60243 1.60051,-0.019 0.5335,0.67937 0.014,0.56547 0.4356,0.62042 h 0.86219 l 0.054,-0.30172 0.49454,-0.019 0.12189,0.3207 0.6384,0.0579 0.89117,1.48661 h 1.40968 l 0.1079,0.30172 0.4266,0.0599 0.014,0.26176 0.4246,0.0559 0.44059,0.62441 0.013,0.8642 1.07699,0.0569 0.45258,1.16791 h 2.28687 l 0.12188,0.3197 h 0.53051 l 0.12188,0.30172 h 0.54449 l 0.1069,0.3217 0.42561,0.057 0.62541,0.9621 0.69435,1.26382 v 1.22585 l -0.4256,0.1159 v 0.38963 l 1.2888,0.67737 0.014,0.24477 h 0.54349 l 0.1079,0.3207 0.4256,0.0559 0.88018,1.22585 0.013,1.30279 -0.22579,0.11389 -0.0539,0.60244 -0.37266,0.021 -0.71932,1.22386 -0.38664,0.02 -0.6504,0.92114 v 1.42966 l -0.26775,0.41761 h -1.8133 l -0.12189,-0.30172 -0.41261,-0.0579 -0.014,-0.24278 -0.65039,-0.0569 -0.22779,-0.37965 V 205.726 l 0.2118,-0.1139 -0.2088,-0.39063 -1.08399,0.30072 0.66338,0.80724 -0.22779,1.44765 0.8652,0.35767 0.44058,0.62342 0.66338,4.57372 h 0.98409 l 0.10789,0.32071 0.42461,0.0559 0.016,0.24477 0.42461,0.0559 0.014,0.56747 0.41162,0.35667 0.23878,0.86419 1.51758,0.37865 0.015,0.24277 0.42461,0.0599 0.014,0.35367 0.3177,-0.0919 0.11989,0.30072 0.41261,0.057 0.015,0.26375 0.4246,0.0559 0.23878,0.54749 1.29179,0.67736 0.44059,0.62043 0.013,0.56547 0.2128,0.11589 -0.053,2.88031 -0.2158,0.30471 -0.82323,0.018 -0.0559,0.30172 h -0.81024 l -0.0669,0.30072 -0.59944,0.019 -0.70434,0.90315 -1.03903,0.019 -0.49254,0.60143 -0.80925,0.019 -10e-4,1.42866 -0.49154,0.71733 -0.59944,0.019 -0.0669,0.29972 -0.26875,9.9e-4 -0.12289,-0.30071 H 430.543 l -0.11989,-0.30072 -0.4256,-0.0769 -0.015,-0.24278 -0.41061,-0.0559 -0.24078,-1.18789 -0.4256,-0.056 -0.22679,-0.54549 h -0.75629 l -0.12089,-0.3197 H 427.256 l -0.1069,-0.30172 -0.4256,-0.0579 -0.014,-0.26175 -0.4256,-0.0559 -0.015,-0.56647 -0.8612,-1.03204 -0.43459,0.73132 v 0.69135 l 0.22479,0.31771 0.6384,0.0579 0.015,0.24377 0.6374,0.058 0.43959,0.62242 0.015,0.56447 0.43859,0.41561 v 1.24284 l -0.43959,0.1159 -0.28174,0.60243 -1.46163,0.018 0.2128,1.10696 -0.93313,1.66045 -1.68143,-0.037 -0.45357,-1.50959 -0.22479,-0.29873 -0.41262,-0.0559 -0.23778,-0.56148 -0.3177,0.31671 h -1.86226 l -1.79632,2.44471 -0.59944,0.021 -0.49055,0.60144 -0.38464,0.019 v 1.10897 l -0.70933,1.03703 -1.59651,0.019 -0.1099,-0.3217 h -2.93826 l -0.12288,-0.30072 h -1.29779 l -0.055,0.28174 -0.38564,0.019 -0.2118,0.31771 0.2118,0.39063 0.4266,0.058 -0.039,1.69741 -0.60144,0.02 -0.49054,0.60244 h -0.60044 l -0.49254,0.60144 -0.38264,0.019 0.22579,1.42567 -0.22579,0.11589 v 0.71034 l 0.64839,1.21986 0.33069,-0.30072 h 1.97316 l 0.1069,0.30272 0.4256,0.0579 0.015,0.26176 0.4236,0.0559 0.87818,1.48561 h 0.6464 l 0.12288,-0.3197 h 2.18297 l 0.10889,0.3197 0.42461,0.0559 0.017,0.24477 0.42461,0.0579 0.014,0.56448 0.43959,0.73631 -10e-4,1.12595 0.41262,0.35666 0.23977,1.1849 0.21181,0.29872 0.4256,0.056 0.014,0.24477 0.4246,0.0559 0.66738,1.00106 v 2.16398 l -1.14593,1.93619 -0.38564,0.021 -0.1079,0.3187 h -1.63548 l -0.1079,0.30072 h -1.10496 l -0.1099,-0.30072 h -0.54449 l -0.1079,-0.3187 -0.4256,-0.0559 -0.014,-0.24477 -0.6484,-0.11189 -0.26375,0.39363 -0.38664,0.019 -0.053,0.30072 -0.59844,0.018 -0.12089,0.30072 h -0.44158 l -0.1079,-0.30072 h -0.75929 l -0.11989,-0.3187 h -0.7563 l -0.10989,-0.62242 -0.65239,-0.65738 -0.22579,-1.1839 -0.42561,-0.37764 -0.22479,-1.16392 h -0.98308 l -0.1089,-0.3187 h -3.16504 l -0.12189,-0.30072 -0.41261,-0.0579 -0.028,-0.24278 -0.41061,-0.057 -0.015,-0.26275 -0.65039,-0.056 -0.66638,-1.18489 -0.4256,-0.058 -0.86619,-1.22385 0.19981,-2.42474 -0.2088,-0.29672 -0.33269,0.29872 -0.5425,-0.29872 -0.0539,0.29672 -0.37365,0.002 -0.27874,0.59944 -0.38564,0.021 -0.2118,0.39063 0.2118,0.29673 0.63841,0.0559 0.028,0.26375 0.40962,0.0579 0.017,0.24278 h 0.33069 l 0.31971,0.37864 0.015,0.56448 0.43859,0.71533 -0.22579,0.82823 0.22479,0.29672 0.63841,0.0579 0.65339,0.92314 -0.19882,0.56048 0.41062,0.0579 0.014,0.56548 0.22778,0.11389 v 1.86426 l -0.49454,0.71533 h -0.38663 l -0.26576,0.60144 -2.0251,0.019 -0.12289,-0.30072 -0.4256,-0.0559 -0.22779,-0.37965 v -1.42667 l -0.43659,-0.62042 h -0.3207 l -0.3197,-0.35866 -0.23978,-1.1839 -0.43659,-0.59944 h -2.50067 l -0.12188,-0.3197 h -1.2868 l -0.50653,0.92114 -1.24883,0.3187 -0.0559,0.28274 -0.59744,0.018 -0.0539,0.30072 -0.82423,0.019 -0.0539,0.28174 -0.59744,0.019 -0.054,0.30072 h -0.82423 l -0.21281,0.3197 v 1.12795 l -0.49254,0.71533 h -0.38663 l -0.26675,0.60144 -1.37272,0.019 -0.12289,-0.30072 h -0.42061 l -0.0539,0.28174 -0.93212,0.019 -0.12289,-0.30072 -0.41261,-0.0559 -0.015,-0.26376 h -0.20581 l -0.0689,0.30072 -0.36966,-0.0929 -0.28074,0.71133 -0.81124,0.3207 -0.28074,0.60144 -0.37065,0.021 v 1.12195 l -0.50553,1.02005 -0.60044,0.019 -0.49254,0.60144 -0.59844,0.018 -0.053,0.28173 -0.37265,0.019 -0.0679,0.30072 h -0.59744 l -0.054,0.30072 -0.93513,0.019 -0.1079,-0.31971 h -1.29878 l -0.0669,0.30072 -0.37465,-0.0929 -0.43559,0.1119 -0.0559,0.28173 -0.59644,0.019 -0.27974,0.60044 -0.81224,0.34069 -0.27874,0.60044 h -0.38664 l -0.0539,0.30071 -0.59744,0.019 -0.28074,0.60143 -0.81025,0.31671 -0.0549,0.30272 h -0.38564 l -0.052,0.30072 -0.38663,0.019 -0.053,0.30072 h -0.37265 l -0.0659,0.29972 -0.37265,0.021 -0.0679,0.27974 -0.37166,0.021 -0.0539,0.30072 -0.38564,0.018 -0.27974,0.90216 -0.81024,0.3177 -0.055,0.30172 -0.82523,0.019 -0.49354,0.60144 h -0.59744 l -0.26575,0.61742 -0.38564,0.002 -0.055,0.30072 -0.59744,0.019 -0.0669,0.28174 -1.25083,0.018 -0.1089,0.3217 -1.42267,-0.3217 -0.54749,0.62242 h -3.93832 l -0.1099,-0.30072 -0.4256,-0.0579 -0.014,-0.26376 -0.4236,-0.0559 -0.016,-0.24377 -0.41061,-0.0559 -0.23978,-0.56447 -0.4256,-0.0559 -0.015,-0.26275 h -0.54249 l -0.1089,-0.30072 -0.4256,-0.0559 -0.015,-0.24477 h -0.41861 l -0.0539,0.28174 -0.82323,0.3177 -0.0559,0.30272 -1.68842,0.3187 -0.053,0.30072 -0.60044,0.019 -0.50653,0.60244 -1.79832,0.019 -0.97309,-1.29978 -0.014,-0.56348 -0.8662,-0.97609 -0.013,-0.56247 -0.8642,-0.058 -0.014,-0.56347 -0.63841,-0.67737 -0.014,-0.56447 -0.63641,-0.65739 -0.015,-0.56347 -1.30478,-1.91721 -0.45257,-1.48461 -0.63841,-0.67637 -0.013,-0.54549 -0.6384,-0.67737 -0.014,-0.56248 -0.6394,-0.67836 -0.013,-0.56348 -1.30378,-1.89822 -0.013,-0.68137 0.22479,-0.2058 -0.86419,-1.27581 -0.22579,-1.48462 -0.4256,-0.67836 -0.45258,-1.80232 -0.6394,-0.058 -0.013,-0.56447 -0.22679,-0.11389 0.22679,-1.42567 -0.65239,-0.06 -0.013,-0.54149 -0.19981,-0.0619 -0.013,-0.56248 -0.43859,-0.73431 v -0.80525 l -0.19981,-0.0579 -0.013,-0.56248 -0.2138,-0.058 -0.014,-0.56447 -0.41261,-0.67836 -0.026,-0.8652 -0.2128,-0.11389 v -0.62142 l 0.2128,-0.11589 v -3.17304 l -0.4266,-0.11589"
     fill-rule="evenodd"
     id="path613"
     style="font-style:normal;font-weight:400;font-size:50px;font-family:'MS Shell Dlg 2';fill:#7d8b8f;fill-opacity:1;stroke:none;stroke-width:0.999067;stroke-linecap:square;stroke-linejoin:bevel" />
  <g
     stroke-linejoin="bevel"
     font-style="normal"
     stroke-width="1"
     font-family="'MS Shell Dlg 2'"
     font-size="50px"
     stroke-linecap="square"
     font-weight="400"
     transform="scale(0.999067)"
     fill="none"
     stroke="#000000"
     stroke-opacity="1"
     id="g614"
     style="fill-rule:evenodd" />
  <g
     stroke-linejoin="bevel"
     font-style="normal"
     stroke-width="1"
     font-family="'MS Shell Dlg 2'"
     font-size="50px"
     stroke-linecap="square"
     font-weight="400"
     transform="scale(11.8)"
     fill="none"
     stroke="#000000"
     stroke-opacity="1"
     id="g615"
     style="fill-rule:evenodd" />
  <g
     stroke-linejoin="bevel"
     font-style="normal"
     stroke-width="1"
     font-family="'MS Shell Dlg 2'"
     font-size="50px"
     stroke-linecap="square"
     font-weight="400"
     transform="scale(11.8)"
     fill="none"
     stroke="#000000"
     stroke-opacity="1"
     id="g616"
     style="fill-rule:evenodd" />
  <g
     stroke-linejoin="bevel"
     font-style="normal"
     stroke-width="1"
     font-family="'MS Shell Dlg 2'"
     font-size="50px"
     stroke-linecap="square"
     font-weight="400"
     transform="scale(11.8)"
     fill="none"
     stroke="#000000"
     stroke-opacity="1"
     id="g617"
     style="fill-rule:evenodd" />
  <g
     stroke-linejoin="bevel"
     font-style="normal"
     stroke-width="1"
     font-family="'MS Shell Dlg 2'"
     font-size="50px"
     stroke-linecap="square"
     font-weight="400"
     fill="none"
     stroke="#000000"
     stroke-opacity="1"
     id="g618"
     style="fill-rule:evenodd" />
  <g
     stroke-linejoin="bevel"
     font-style="normal"
     stroke-width="1"
     font-family="'MS Shell Dlg 2'"
     font-size="50px"
     stroke-linecap="square"
     font-weight="400"
     transform="scale(11.8)"
     fill="none"
     stroke="#000000"
     stroke-opacity="1"
     id="g619"
     style="fill-rule:evenodd" />
  <g
     stroke-linejoin="bevel"
     font-style="normal"
     stroke-width="1"
     font-family="'MS Shell Dlg 2'"
     font-size="50px"
     stroke-linecap="square"
     font-weight="400"
     transform="scale(11.8)"
     fill="none"
     stroke="#000000"
     stroke-opacity="1"
     id="g620"
     style="fill-rule:evenodd" />
  <g
     stroke-linejoin="bevel"
     font-style="normal"
     stroke-width="1"
     font-family="'MS Shell Dlg 2'"
     font-size="50px"
     stroke-linecap="square"
     font-weight="400"
     transform="scale(11.8)"
     fill="none"
     stroke="#000000"
     stroke-opacity="1"
     id="g621"
     style="fill-rule:evenodd" />
  <g
     stroke-linejoin="bevel"
     font-style="normal"
     stroke-width="1"
     font-family="'MS Shell Dlg 2'"
     font-size="50px"
     stroke-linecap="square"
     font-weight="400"
     transform="scale(11.8)"
     fill="none"
     stroke="#000000"
     stroke-opacity="1"
     id="g622"
     style="fill-rule:evenodd" />
  <g
     stroke-linejoin="bevel"
     font-style="normal"
     stroke-width="1"
     font-family="'MS Shell Dlg 2'"
     font-size="50px"
     stroke-linecap="square"
     font-weight="400"
     fill="none"
     stroke="#000000"
     stroke-opacity="1"
     id="g623"
     style="fill-rule:evenodd" />
  <metadata
     id="metadata624">
    <rdf:RDF>
      <rdf:Description
         dc:description=""
         dc:identifier=""
         dc:format="image/svg+xml"
         dc:date="2024-04-23T12:26:23"
         dc:title="">
        <dc:creator>
          <rdf:Bag>
            <rdf:li>Anatolii Tsyplenkov</rdf:li>
          </rdf:Bag>
        </dc:creator>
        <dc:publisher>
          <rdf:Bag>
            <rdf:li>QGIS 3.34.6-Prizren</rdf:li>
          </rdf:Bag>
        </dc:publisher>
        <dc:subject>
          <rdf:Bag />
        </dc:subject>
      </rdf:Description>
      <cc:Work
         rdf:about="">
        <dc:format>image/svg+xml</dc:format>
        <dc:title />
        <dc:date>2024-04-23T12:26:23</dc:date>
        <dc:identifier />
        <dc:description />
        <dc:creator>
          <cc:Agent>
            <dc:title>Anatolii Tsyplenkov</dc:title>
          </cc:Agent>
        </dc:creator>
        <dc:publisher>
          <cc:Agent>
            <dc:title>QGIS 3.34.6-Prizren</dc:title>
          </cc:Agent>
        </dc:publisher>
      </cc:Work>
    </rdf:RDF>
  </metadata>
</svg>
